<svg width="20" height="20" viewBox="0 0 20 20" fill="none" xmlns="http://www.w3.org/2000/svg">
<path d="M13.8 3.2479V1.9999C13.8 1.6719 13.528 1.3999 13.2 1.3999C12.872 1.3999 12.6 1.6719 12.6 1.9999V3.1999H7.39999V1.9999C7.39999 1.6719 7.12799 1.3999 6.79999 1.3999C6.47199 1.3999 6.19999 1.6719 6.19999 1.9999V3.2479C4.03999 3.4479 2.99199 4.7359 2.83199 6.6479C2.81599 6.8799 3.00799 7.0719 3.23199 7.0719H16.768C17 7.0719 17.192 6.8719 17.168 6.6479C17.008 4.7359 15.96 3.4479 13.8 3.2479Z" fill="black"/>
<path d="M15.5999 12.3999C13.8319 12.3999 12.3999 13.8319 12.3999 15.5999C12.3999 16.1999 12.5679 16.7679 12.8639 17.2479C13.4159 18.1759 14.4319 18.7999 15.5999 18.7999C16.7679 18.7999 17.7839 18.1759 18.3359 17.2479C18.6319 16.7679 18.7999 16.1999 18.7999 15.5999C18.7999 13.8319 17.3679 12.3999 15.5999 12.3999ZM17.2559 15.2559L15.5519 16.8319C15.4399 16.9359 15.2879 16.9919 15.1439 16.9919C14.9919 16.9919 14.8399 16.9359 14.7199 16.8159L13.9279 16.0239C13.6959 15.7919 13.6959 15.4079 13.9279 15.1759C14.1599 14.9439 14.5439 14.9439 14.7759 15.1759L15.1599 15.5599L16.4399 14.3759C16.6799 14.1519 17.0639 14.1679 17.2879 14.4079C17.5119 14.6479 17.4959 15.0239 17.2559 15.2559Z" fill="black"/>
<path d="M16.3998 8.27197H3.5998C3.1598 8.27197 2.7998 8.63197 2.7998 9.07197V14C2.7998 16.4 3.9998 18 6.79981 18H10.7438C11.2958 18 11.6798 17.464 11.5038 16.944C11.3438 16.48 11.2078 15.968 11.2078 15.6C11.2078 13.176 13.1838 11.2 15.6078 11.2C15.8398 11.2 16.0718 11.216 16.2958 11.256C16.7758 11.328 17.2078 10.952 17.2078 10.472V9.07997C17.1998 8.63197 16.8398 8.27197 16.3998 8.27197ZM7.76781 14.968C7.61581 15.112 7.4078 15.2 7.19981 15.2C6.99181 15.2 6.7838 15.112 6.6318 14.968C6.4878 14.816 6.39981 14.608 6.39981 14.4C6.39981 14.192 6.4878 13.984 6.6318 13.832C6.71181 13.76 6.79181 13.704 6.8958 13.664C7.1918 13.536 7.54381 13.608 7.76781 13.832C7.91181 13.984 7.9998 14.192 7.9998 14.4C7.9998 14.608 7.91181 14.816 7.76781 14.968ZM7.76781 12.168C7.72781 12.2 7.68781 12.232 7.64781 12.264C7.59981 12.296 7.55181 12.32 7.50381 12.336C7.45581 12.36 7.4078 12.376 7.35981 12.384C7.3038 12.392 7.24781 12.4 7.19981 12.4C6.99181 12.4 6.7838 12.312 6.6318 12.168C6.4878 12.016 6.39981 11.808 6.39981 11.6C6.39981 11.392 6.4878 11.184 6.6318 11.032C6.8158 10.848 7.0958 10.76 7.35981 10.816C7.4078 10.824 7.45581 10.84 7.50381 10.864C7.55181 10.88 7.59981 10.904 7.64781 10.936C7.68781 10.968 7.72781 11 7.76781 11.032C7.91181 11.184 7.9998 11.392 7.9998 11.6C7.9998 11.808 7.91181 12.016 7.76781 12.168ZM10.5678 12.168C10.4158 12.312 10.2078 12.4 9.99981 12.4C9.79181 12.4 9.58381 12.312 9.43181 12.168C9.28781 12.016 9.19981 11.808 9.19981 11.6C9.19981 11.392 9.28781 11.184 9.43181 11.032C9.73581 10.736 10.2718 10.736 10.5678 11.032C10.7118 11.184 10.7998 11.392 10.7998 11.6C10.7998 11.808 10.7118 12.016 10.5678 12.168Z" fill="black"/>
</svg>
