<svg width="20" height="20" viewBox="0 0 20 20" fill="none" xmlns="http://www.w3.org/2000/svg">
<path d="M17.1839 8.9601C17.0079 5.8401 14.6959 3.2401 11.6079 2.7121C11.5599 2.0961 11.0479 1.6001 10.4159 1.6001H9.61592C8.98392 1.6001 8.47992 2.0881 8.42392 2.7041C5.31992 3.2161 2.99192 5.8241 2.81592 8.9601C2.24792 9.0561 1.81592 9.5441 1.81592 10.1361V10.9361C1.81592 11.6001 2.35192 12.1361 3.01592 12.1361H3.81592C4.47992 12.1361 5.01592 11.6001 5.01592 10.9361V10.1361C5.01592 9.5441 4.58392 9.0561 4.01592 8.9601C4.18392 6.4641 6.01592 4.3921 8.46392 3.9121C8.59992 4.4241 9.06392 4.8001 9.61592 4.8001H10.4159C10.9679 4.8001 11.4239 4.4241 11.5679 3.9201C13.9999 4.4081 15.8159 6.4801 15.9839 8.9601C15.4159 9.0561 14.9839 9.5441 14.9839 10.1361V10.9361C14.9839 11.6001 15.5199 12.1361 16.1839 12.1361H16.9839C17.6479 12.1361 18.1839 11.6001 18.1839 10.9361V10.1361C18.1839 9.5441 17.7519 9.0481 17.1839 8.9601Z" fill="black"/>
<path d="M13.0159 13.6397L11.7039 14.7997H8.30387L6.99187 13.6397C6.23187 13.0157 6.23187 12.5357 6.80787 11.7997L9.11987 8.87167C9.27987 8.67167 9.46387 8.53567 9.67187 8.46367C9.88787 8.39167 10.1199 8.39167 10.3439 8.46367C10.5439 8.53567 10.7279 8.67167 10.8959 8.87167L13.1999 11.7917C13.7839 12.5277 13.7519 12.9837 13.0159 13.6397Z" fill="black"/>
<path d="M11.0558 17.9995H8.98384C8.24784 17.9995 7.69584 17.3995 7.83984 16.7595L8.08784 15.6475C8.13584 15.4235 8.33584 15.2715 8.55984 15.2715H11.4798C11.7038 15.2715 11.8958 15.4235 11.9518 15.6475L12.1998 16.7595C12.3518 17.4395 11.8398 17.9995 11.0558 17.9995Z" fill="black"/>
</svg>
