<svg width="20" height="20" viewBox="0 0 20 20" fill="none" xmlns="http://www.w3.org/2000/svg">
<path d="M14.424 6.616C14.368 6.608 14.312 6.608 14.256 6.616C13.016 6.576 12.032 5.56 12.032 4.312C12.032 3.04 13.064 2 14.344 2C15.616 2 16.656 3.032 16.656 4.312C16.648 5.56 15.664 6.576 14.424 6.616Z" fill="black"/>
<path d="M17.0319 12.1598C16.1359 12.7598 14.8799 12.9838 13.7199 12.8318C14.0239 12.1758 14.1839 11.4478 14.1919 10.6798C14.1919 9.87983 14.0159 9.11983 13.6799 8.45583C14.8639 8.29583 16.1199 8.51983 17.0239 9.11983C18.2879 9.95183 18.2879 11.3198 17.0319 12.1598Z" fill="black"/>
<path d="M5.55188 6.616C5.60788 6.608 5.66388 6.608 5.71988 6.616C6.95988 6.576 7.94388 5.56 7.94388 4.312C7.94388 3.032 6.91188 2 5.63188 2C4.35988 2 3.32788 3.032 3.32788 4.312C3.32788 5.56 4.31188 6.576 5.55188 6.616Z" fill="black"/>
<path d="M5.63985 10.68C5.63985 11.456 5.80785 12.192 6.11185 12.856C4.98385 12.976 3.80785 12.736 2.94385 12.168C1.67985 11.328 1.67985 9.95999 2.94385 9.11999C3.79985 8.54399 5.00785 8.31199 6.14385 8.43999C5.81585 9.11199 5.63985 9.87199 5.63985 10.68Z" fill="black"/>
<path d="M10.096 13.0961C10.032 13.0881 9.95999 13.0881 9.88799 13.0961C8.41599 13.0481 7.23999 11.8401 7.23999 10.3521C7.24799 8.8321 8.47199 7.6001 9.99999 7.6001C11.52 7.6001 12.752 8.8321 12.752 10.3521C12.744 11.8401 11.576 13.0481 10.096 13.0961Z" fill="black"/>
<path d="M7.49584 14.752C6.28784 15.56 6.28784 16.888 7.49584 17.688C8.87184 18.608 11.1278 18.608 12.5038 17.688C13.7118 16.88 13.7118 15.552 12.5038 14.752C11.1358 13.832 8.87984 13.832 7.49584 14.752Z" fill="black"/>
</svg>
